Coordinates
version=1
nRows=26
nColumns=24
inDegrees=yes

Units are S.I. units (second, meters, Newtons, ...)
Angles are in degrees.

endheader
time	pelvis_tilt	pelvis_list	pelvis_rotation	pelvis_tx	pelvis_ty	pelvis_tz	hip_flexion_r	hip_adduction_r	hip_rotation_r	knee_angle_r	ankle_angle_r	subtalar_angle_r	mtp_angle_r	hip_flexion_l	hip_adduction_l	hip_rotation_l	knee_angle_l	ankle_angle_l	subtalar_angle_l	mtp_angle_l	lumbar_extension	lumbar_bending	lumbar_rotation
      4.79500000	     14.95380744	      1.31361238	     -1.32367525	      0.54517937	      0.95286343	     -0.01549650	    -17.83684832	     -7.27972210	     -4.80695876	    -38.69527022	     17.44120444	     23.55652718	     42.76161097	     -1.92838279	      1.71518801	     -5.72267762	    -14.28852610	      7.23721637	     12.37835994	     16.58651763	    -24.71825583	     -1.78444009	      0.12685110
      4.80000000	     14.99689831	      1.41173608	     -1.27739320	      0.54970878	      0.95351827	     -0.01634137	    -17.26269988	     -7.59292810	     -4.93772751	    -40.11541421	     16.39860236	     23.78795475	     42.87757686	     -2.37413572	      1.85379524	     -5.81023829	    -14.10194114	      7.44792211	     12.68290953	     16.48492920	    -24.72058459	     -1.97025282	     -0.00324948
      4.80500000	     15.02128749	      1.49627393	     -1.25590821	      0.55421425	      0.95412677	     -0.01712186	    -16.64934140	     -7.89713191	     -5.04529976	    -41.51360304	     15.46860369	     23.91283364	     43.15218449	     -2.83304000	      1.97377019	     -5.96586482	    -13.85010907	      7.71648625	     13.09812144	     16.21339112	    -24.70254488	     -2.14967471	     -0.06931700
      4.81000000	     15.08426438	      1.56490253	     -1.20703630	      0.55867868	      0.95483439	     -0.01784652	    -16.09626411	     -8.14880793	     -5.13752588	    -42.81966737	     14.53410397	     23.76252270	     43.21005661	     -3.34556900	      2.06982992	     -6.15349893	    -13.56343210	      7.84044144	     13.47178689	     16.07809792	    -24.73314758	     -2.30919381	     -0.23162167
      4.81500000	     15.14359036	      1.62201810	     -1.18088142	      0.56314261	      0.95550833	     -0.01852211	    -15.52862773	     -8.39625790	     -5.23013586	    -44.09038573	     13.76116299	     23.51231241	     43.22042422	     -3.88835563	      2.15501029	     -6.39258918	    -13.20985657	      7.99932702	     13.90483858	     15.94856614	    -24.75625366	     -2.46287330	     -0.33969369
      4.82000000	     15.20102377	      1.61132050	     -1.17431826	      0.56762058	      0.95619818	     -0.01903803	    -14.96405053	     -8.54982358	     -5.27313417	    -45.27360262	     13.08616064	     23.02685741	     43.48172087	     -4.43425393	      2.14369339	     -6.77213485	    -12.90067846	      8.67123003	     14.82680633	     10.58059563	    -24.77222356	     -2.56090498	     -0.38673577
      4.82500000	     15.25865818	      1.66105414	     -1.14973836	      0.57203219	      0.95685347	     -0.01966400	    -14.38972122	     -8.78275233	     -5.39907649	    -46.44228736	     12.57170570	     22.47265298	     43.35650150	     -5.01092674	      2.22702579	     -7.03853677	    -12.45973040	      8.72834960	     15.23443020	     10.58655480	    -24.79660946	     -2.70305101	     -0.50903791
      4.83000000	     15.32478946	      1.63651365	     -1.16123756	      0.57649238	      0.95753611	     -0.02014326	    -13.83519089	     -8.91785281	     -5.46432938	    -47.50892768	     12.22115244	     21.65676097	     43.07606205	     -5.63688800	      2.22659269	     -7.41461071	    -11.95279860	      8.84879876	     15.77009754	     10.56768355	    -24.82077122	     -2.78350928	     -0.52992850
      4.83500000	     15.38561094	      1.60928657	     -1.15865338	      0.58089992	      0.95821532	     -0.02062833	    -13.27277731	     -9.04734683	     -5.57045198	    -48.52064191	     11.96164505	     20.74881738	     42.69556590	     -6.25171296	      2.22719369	     -7.77040588	    -11.44854341	      8.92416745	     16.26496339	     10.51458108	    -24.84652901	     -2.85342288	     -0.58564709
      4.84000000	     15.45690000	      1.58367857	     -1.16514911	      0.58525090	      0.95885401	     -0.02110716	    -12.70825926	     -9.18889887	     -5.68375719	    -49.52429640	     12.04541817	     20.07592492	     38.71566133	     -6.86440336	      2.23287983	     -8.15712086	    -10.97649908	      9.10600382	     16.84853534	      9.34749810	    -24.88708065	     -2.92033652	     -0.63340882
      4.84500000	     15.51435064	      1.52375315	     -1.14718618	      0.58960242	      0.95950324	     -0.02159530	    -12.14904146	     -9.27599130	     -5.85310472	    -50.39283664	     11.95952174	     18.92535531	     38.52005882	     -7.48116627	      2.20896121	     -8.48825663	    -10.45025938	      9.16787178	     17.27945932	      9.28287403	    -24.91425925	     -2.93856100	     -0.67832250
      4.85000000	     15.57254881	      1.44294508	     -1.14330287	      0.59393131	      0.96014965	     -0.02203852	    -11.59010029	     -9.33613529	     -6.01229958	    -51.18649798	     11.96280139	     17.73104300	     38.19669839	     -8.10042682	      2.16596729	     -8.84498940	     -9.92033212	      9.21846044	     17.73987035	      9.18150469	    -24.94324809	     -2.93617001	     -0.69892138
      4.85500000	     15.63119870	      1.37574393	     -1.17799055	      0.59823378	      0.96076195	     -0.02240571	    -11.01350249	     -9.41815181	     -6.14099703	    -51.95609293	     12.21809186	     16.74199366	     35.54163359	     -8.71949901	      2.14366319	     -9.25772829	     -9.39896348	      9.34815396	     18.28109273	      7.90534797	    -24.97428545	     -2.96098026	     -0.70977101
      4.86000000	     15.66358647	      1.26456329	     -1.13196944	      0.60246726	      0.96135567	     -0.02289060	    -10.43820375	     -9.42595382	     -6.36234433	    -52.59455129	     12.32235993	     15.47307846	     35.38991873	     -9.29212747	      2.07411416	     -9.50402638	     -8.88638343	      9.36545254	     18.59049707	      7.84617848	    -24.98804985	     -2.89941988	     -0.77998571
      4.86500000	     15.71086841	      1.12621553	     -1.12128523	      0.60670582	      0.96196790	     -0.02329089	     -9.87952484	     -9.40375267	     -6.55750023	    -53.14805023	     12.50240419	     14.25948799	     35.11055065	     -9.87103452	      1.97488865	     -9.84951276	     -8.40861988	      9.42186028	     19.02435177	      7.73377185	    -25.01527593	     -2.81907189	     -0.74795981
      4.87000000	     15.76404982	      0.97697674	     -1.11500243	      0.61091833	      0.96256958	     -0.02362969	     -9.33184211	     -9.35294847	     -6.72898171	    -53.62309102	     12.75969010	     13.14022507	     34.55044107	    -10.44642514	      1.86235439	    -10.21444801	     -7.95140078	      9.50650567	     19.48814887	      7.46665805	    -25.05225114	     -2.73026371	     -0.77715473
      4.87500000	     15.76658293	      0.90549837	     -1.09674918	      0.61507868	      0.96306545	     -0.02410777	     -8.71244671	     -9.41844279	     -6.98808050	    -54.07751982	     13.00482167	     12.15974005	     34.36916216	    -10.96597031	      1.85466796	    -10.42029219	     -7.46412121	      9.44670650	     19.66429685	      7.38921849	    -25.04066553	     -2.70005316	     -0.79653955
      4.88000000	     15.77766953	      0.75349597	     -1.09053046	      0.61920378	      0.96360211	     -0.02448849	     -8.11417611	     -9.35848134	     -7.17351932	    -54.41375092	     13.26519344	     11.18170863	     34.13614418	    -11.47734669	      1.75329637	    -10.67720568	     -7.02503348	      9.46429264	     19.91486739	      7.30438927	    -25.04276842	     -2.58834459	     -0.77654768
      4.88500000	     15.82064338	      0.55214301	     -1.11598924	      0.62332979	      0.96416638	     -0.02472674	     -7.55233878	     -9.22527072	     -7.28810628	    -54.69155126	     13.78923545	     10.61775095	     30.58953012	    -12.00962552	      1.58998306	    -11.02664315	     -6.64530309	      9.75398814	     20.40476920	      5.22960164	    -25.07708597	     -2.44320732	     -0.69517305
      4.89000000	     15.81256200	      0.39906105	     -1.10402952	      0.62740134	      0.96463651	     -0.02508371	     -6.94042423	     -9.14707883	     -7.47686287	    -54.88502808	     14.06806962	      9.92153212	     30.55245793	    -12.47452716	      1.48576896	    -11.21645255	     -6.25138693	      9.78737206	     20.60457314	      5.15200315	    -25.06509629	     -2.32160399	     -0.68751052
      4.89500000	     15.82546806	      0.22841972	     -1.11331190	      0.63146723	      0.96511664	     -0.02537691	     -6.35887228	     -9.03814261	     -7.63417795	    -54.99373355	     14.39440722	      9.38000854	     30.47822187	    -12.95384143	      1.36451237	    -11.43210699	     -5.88315526	      9.84659320	     20.81592046	      5.04909341	    -25.07604295	     -2.18714266	     -0.63327901
      4.90000000	     15.83401506	      0.05907860	     -1.12935532	      0.63552547	      0.96556824	     -0.02566089	     -5.77909304	     -8.92162375	     -7.77544628	    -55.02967585	     14.75494913	      8.99332973	     30.37201431	    -13.42078795	      1.24762241	    -11.62395332	     -5.53039436	      9.90826332	     20.99001823	      4.92287365	    -25.08223366	     -2.05092673	     -0.57902780
      4.90500000	     15.84421664	     -0.10026365	     -1.13882797	      0.63960124	      0.96598671	     -0.02592916	     -5.21575542	     -8.81357436	     -7.93036289	    -55.00776460	     15.28387429	      8.94600361	     28.76026323	    -13.87886986	      1.13348831	    -11.80293956	     -5.21260629	     10.11680215	     21.27448167	      3.01649077	    -25.08937491	     -1.92145071	     -0.53118245
      4.91000000	     15.83563116	     -0.26038345	     -1.14140698	      0.64360980	      0.96634537	     -0.02623905	     -4.63443233	     -8.68950277	     -8.07388217	    -54.90613972	     15.67571638	      8.83156441	     28.78464073	    -14.30489695	      1.02648535	    -11.84230567	     -4.89940993	     10.21586217	     21.26384365	      3.00116645	    -25.08423147	     -1.77850136	     -0.48993447
      4.91500000	     15.82820251	     -0.42315954	     -1.16368477	      0.64762774	      0.96668363	     -0.02649142	     -4.06258492	     -8.54926528	     -8.18559924	    -54.72783605	     16.06237373	      8.80681026	     28.80117803	    -14.73485989	      0.91911551	    -11.89748801	     -4.58332326	     10.28695932	     21.26110890	      2.97851246	    -25.08026575	     -1.63994470	     -0.43139717
      4.92000000	     15.82260575	     -0.58240448	     -1.19479880	      0.65165660	      0.96698282	     -0.02671458	     -3.50286672	     -8.40159414	     -8.28254132	    -54.48110931	     16.44886938	      8.86621752	     28.81557945	    -15.16748989	      0.81623643	    -11.91149739	     -4.27097716	     10.37555591	     21.24485677	      2.95992730	    -25.07599314	     -1.50635451	     -0.37129761
